<svg width="410" height="488" viewBox="0 0 410 488" fill="none" xmlns="http://www.w3.org/2000/svg">
<path d="M223.414 330.01C229.756 329.67 235.173 334.537 235.513 340.879C235.852 347.221 230.986 352.637 224.644 352.977C218.182 353.323 211.629 353.5 205 353.5C199.2 353.5 193.457 353.364 187.783 353.099L185.356 352.977L184.766 352.931C178.715 352.298 174.159 347.023 174.487 340.879C174.816 334.735 179.91 329.976 185.994 329.993L186.586 330.01L188.859 330.124C194.174 330.373 199.558 330.5 205 330.5C211.22 330.5 217.363 330.334 223.414 330.01ZM100.102 325.217C101.917 319.338 108.016 315.964 113.912 317.462L114.482 317.622L116.572 318.257C126.368 321.188 136.782 323.656 147.701 325.59L150.049 325.996L150.63 326.109C156.57 327.426 160.497 333.184 159.472 339.251C158.413 345.513 152.478 349.732 146.216 348.674C132.712 346.392 119.81 343.338 107.696 339.598C101.628 337.724 98.2277 331.285 100.102 325.217ZM296.088 317.462C301.984 315.964 308.083 319.338 309.898 325.217C311.772 331.285 308.372 337.724 302.304 339.598L300.023 340.291C288.575 343.717 276.445 346.534 263.784 348.674L263.198 348.758C257.156 349.467 251.554 345.318 250.528 339.251C249.47 332.989 253.689 327.055 259.951 325.996L262.299 325.59C273.998 323.518 285.117 320.833 295.518 317.622L296.088 317.462ZM35.71 285.624C39.8326 281.057 46.7862 280.565 51.5029 284.407L51.9531 284.793L52.6865 285.449C60.3271 292.211 69.8298 298.555 80.9922 304.237C86.6523 307.119 88.9047 314.043 86.0234 319.703C83.2322 325.186 76.6474 327.472 71.0928 324.99L70.5586 324.734L69.3457 324.112C57.2598 317.854 46.4845 310.674 37.4395 302.669L36.541 301.866L36.1113 301.458C31.8078 297.158 31.5877 290.191 35.71 285.624ZM358.047 284.793C362.761 280.537 370.034 280.909 374.29 285.624C378.545 290.339 378.173 297.611 373.459 301.866L372.561 302.669C363.214 310.941 352.02 318.331 339.441 324.734C333.781 327.616 326.858 325.363 323.977 319.703C321.095 314.043 323.348 307.119 329.008 304.237L330.083 303.686C341.138 297.961 350.527 291.581 358.047 284.793ZM7.5 244C7.5 236.212 8.91479 228.647 11.5586 221.413L11.7764 220.862C14.1514 215.261 20.5287 212.448 26.3076 214.56C32.2729 216.74 35.3412 223.342 33.1611 229.308C31.3942 234.142 30.5 239.04 30.5 244C30.5 248.65 31.2866 253.245 32.8408 257.785L33.1611 258.692L33.3506 259.253C35.1471 265.066 32.0865 271.328 26.3076 273.44C20.5287 275.552 14.1514 272.739 11.7764 267.138L11.5586 266.587L11.0771 265.227C8.74329 258.406 7.5 251.301 7.5 244ZM379.5 244C379.5 239.35 378.713 234.755 377.159 230.215L376.839 229.308L376.649 228.747C374.853 222.934 377.913 216.672 383.692 214.56C389.471 212.448 395.849 215.261 398.224 220.862L398.441 221.413L398.923 222.773C401.257 229.594 402.5 236.699 402.5 244C402.5 251.788 401.085 259.353 398.441 266.587L398.224 267.138C395.849 272.739 389.471 275.552 383.692 273.44C377.727 271.26 374.659 264.658 376.839 258.692L377.159 257.785C378.713 253.245 379.5 248.65 379.5 244ZM71.0928 163.01C76.6474 160.528 83.2322 162.814 86.0234 168.297C88.9047 173.957 86.6523 180.881 80.9922 183.763L79.917 184.314C68.8618 190.039 59.4734 196.419 51.9531 203.207L51.5029 203.593C46.7862 207.435 39.8326 206.943 35.71 202.376C31.4546 197.661 31.8266 190.389 36.541 186.134C46.0653 177.536 57.5747 169.875 70.5586 163.266L71.0928 163.01ZM323.977 168.297C326.768 162.814 333.353 160.528 338.907 163.01L339.441 163.266L340.654 163.888C352.74 170.146 363.516 177.326 372.561 185.331L373.459 186.134L373.889 186.542C378.192 190.842 378.412 197.809 374.29 202.376C370.167 206.943 363.214 207.435 358.497 203.593L358.047 203.207L357.313 202.551C349.919 196.007 340.781 189.854 330.083 184.314L329.008 183.763L328.487 183.48C323.212 180.449 321.185 173.78 323.977 168.297ZM146.216 139.326C152.478 138.268 158.413 142.487 159.472 148.749C160.53 155.011 156.311 160.945 150.049 162.004L147.701 162.41C136.002 164.482 124.883 167.167 114.482 170.378L113.912 170.538C108.016 172.036 101.917 168.662 100.102 162.783C98.2277 156.715 101.628 150.276 107.696 148.402L109.977 147.709C121.425 144.283 133.555 141.466 146.216 139.326ZM205 134.5C211.629 134.5 218.182 134.677 224.644 135.023C230.986 135.363 235.852 140.779 235.513 147.121C235.184 153.265 230.09 158.024 224.006 158.007L223.414 157.99L221.141 157.876C215.826 157.627 210.442 157.5 205 157.5C198.78 157.5 192.637 157.666 186.586 157.99L185.994 158.007C179.91 158.024 174.816 153.265 174.487 147.121C174.148 140.779 179.014 135.363 185.356 135.023L187.783 134.901C193.457 134.636 199.2 134.5 205 134.5Z" fill="#AD4035"/>
<path d="M154.314 45.3145C154.107 47.1811 154 49.0781 154 51C154 57.1053 155.074 62.9598 157.041 68.3857C79.794 89.4321 23 160.083 23 244C23 327.917 79.7941 398.567 157.041 419.613C155.073 425.039 154 430.894 154 437C154 438.922 154.107 440.818 154.314 442.685C65.6105 420.124 0 339.725 0 244C0 148.275 65.6104 67.8748 154.314 45.3145ZM255.685 45.3145C344.389 67.8744 410 148.275 410 244C410 339.725 344.389 420.124 255.685 442.685C255.892 440.818 256 438.922 256 437C256 430.894 254.926 425.04 252.958 419.613C330.205 398.567 387 327.917 387 244C387 160.083 330.206 89.4317 252.958 68.3857C254.925 62.9597 256 57.1054 256 51C256 49.0781 255.892 47.1812 255.685 45.3145Z" fill="#AD4035"/>
<path d="M233 51C233 35.536 220.464 23 205 23C189.536 23 177 35.536 177 51C177 66.464 189.536 79 205 79V102C176.833 102 154 79.1665 154 51C154 22.8335 176.833 0 205 0C233.167 0 256 22.8335 256 51C256 79.1665 233.167 102 205 102V79C220.464 79 233 66.464 233 51Z" fill="#AD4035"/>
<path d="M233 437C233 421.536 220.464 409 205 409C189.536 409 177 421.536 177 437C177 452.464 189.536 465 205 465V488C176.833 488 154 465.167 154 437C154 408.833 176.833 386 205 386C233.167 386 256 408.833 256 437C256 465.167 233.167 488 205 488V465C220.464 465 233 452.464 233 437Z" fill="#AD4035"/>
<path d="M284 110C308.853 110 329 130.147 329 155C329 179.853 308.853 200 284 200C276.652 200 269.716 198.237 263.59 195.114L213.601 251.433C209.385 256.183 202.116 256.616 197.366 252.399C192.616 248.183 192.184 240.915 196.4 236.165L246.441 179.788C241.74 172.68 239 164.16 239 155C239 130.147 259.148 110 284 110ZM284 133C271.85 133 262 142.85 262 155C262 167.15 271.85 177 284 177C296.151 177 306 167.15 306 155C306 142.85 296.151 133 284 133Z" fill="#AD4035"/>
</svg>
